<mxfile host="app.diagrams.net" modified="2023-07-30T07:49:38.936Z" agent="Mozilla/5.0 (Windows NT 10.0; Win64; x64) AppleWebKit/537.36 (KHTML, like Gecko) Chrome/115.0.0.0 Safari/537.36" etag="LLJDJSFC2rFhVYDFWYyC" version="21.6.6" type="device">
  <diagram name="Page-1" id="b520641d-4fe3-3701-9064-5fc419738815">
    <mxGraphModel dx="1335" dy="666" grid="1" gridSize="10" guides="1" tooltips="1" connect="1" arrows="1" fold="1" page="1" pageScale="1" pageWidth="1100" pageHeight="850" background="none" math="0" shadow="0">
      <root>
        <mxCell id="0" />
        <mxCell id="1" parent="0" />
        <mxCell id="V8_oPzXZYHcg_3Df2DiM-29" style="edgeStyle=orthogonalEdgeStyle;rounded=0;orthogonalLoop=1;jettySize=auto;html=1;entryX=0.5;entryY=0;entryDx=0;entryDy=0;" edge="1" parent="1" source="V8_oPzXZYHcg_3Df2DiM-1" target="V8_oPzXZYHcg_3Df2DiM-15">
          <mxGeometry relative="1" as="geometry">
            <Array as="points">
              <mxPoint x="550" y="400" />
              <mxPoint x="790" y="400" />
            </Array>
          </mxGeometry>
        </mxCell>
        <mxCell id="V8_oPzXZYHcg_3Df2DiM-1" value="2.1" style="swimlane;fontStyle=0;childLayout=stackLayout;horizontal=1;startSize=20;fillColor=#ffffff;horizontalStack=0;resizeParent=1;resizeParentMax=0;resizeLast=0;collapsible=0;marginBottom=0;swimlaneFillColor=#ffffff;" vertex="1" parent="1">
          <mxGeometry x="500" y="450" width="100" height="75" as="geometry" />
        </mxCell>
        <mxCell id="V8_oPzXZYHcg_3Df2DiM-3" value="Manage Customer Information" style="text;html=1;strokeColor=none;fillColor=none;align=center;verticalAlign=middle;whiteSpace=wrap;rounded=0;" vertex="1" parent="V8_oPzXZYHcg_3Df2DiM-1">
          <mxGeometry y="20" width="100" height="55" as="geometry" />
        </mxCell>
        <mxCell id="V8_oPzXZYHcg_3Df2DiM-5" value="2.2" style="swimlane;fontStyle=0;childLayout=stackLayout;horizontal=1;startSize=20;fillColor=#ffffff;horizontalStack=0;resizeParent=1;resizeParentMax=0;resizeLast=0;collapsible=0;marginBottom=0;swimlaneFillColor=#ffffff;" vertex="1" parent="1">
          <mxGeometry x="980" y="450" width="100" height="75" as="geometry" />
        </mxCell>
        <mxCell id="V8_oPzXZYHcg_3Df2DiM-6" value="Manage Bike Information" style="text;html=1;strokeColor=none;fillColor=none;align=center;verticalAlign=middle;whiteSpace=wrap;rounded=0;" vertex="1" parent="V8_oPzXZYHcg_3Df2DiM-5">
          <mxGeometry y="20" width="100" height="55" as="geometry" />
        </mxCell>
        <mxCell id="V8_oPzXZYHcg_3Df2DiM-8" value="1.3" style="swimlane;fontStyle=0;childLayout=stackLayout;horizontal=1;startSize=20;fillColor=#ffffff;horizontalStack=0;resizeParent=1;resizeParentMax=0;resizeLast=0;collapsible=0;marginBottom=0;swimlaneFillColor=#ffffff;" vertex="1" parent="1">
          <mxGeometry x="500" y="730" width="100" height="75" as="geometry" />
        </mxCell>
        <mxCell id="V8_oPzXZYHcg_3Df2DiM-9" value="Monitor Bike Rentals" style="text;html=1;strokeColor=none;fillColor=none;align=center;verticalAlign=middle;whiteSpace=wrap;rounded=0;" vertex="1" parent="V8_oPzXZYHcg_3Df2DiM-8">
          <mxGeometry y="20" width="100" height="55" as="geometry" />
        </mxCell>
        <mxCell id="V8_oPzXZYHcg_3Df2DiM-13" value="" style="html=1;dashed=0;whiteSpace=wrap;shape=partialRectangle;right=0;" vertex="1" parent="1">
          <mxGeometry x="740" y="472.5" width="100" height="30" as="geometry" />
        </mxCell>
        <mxCell id="V8_oPzXZYHcg_3Df2DiM-15" value="Customer" style="text;html=1;strokeColor=none;fillColor=none;align=center;verticalAlign=middle;whiteSpace=wrap;rounded=0;" vertex="1" parent="1">
          <mxGeometry x="760" y="474" width="60" height="30" as="geometry" />
        </mxCell>
        <mxCell id="V8_oPzXZYHcg_3Df2DiM-37" style="edgeStyle=orthogonalEdgeStyle;rounded=0;orthogonalLoop=1;jettySize=auto;html=1;entryX=0.667;entryY=-0.058;entryDx=0;entryDy=0;entryPerimeter=0;" edge="1" parent="1" source="V8_oPzXZYHcg_3Df2DiM-16" target="V8_oPzXZYHcg_3Df2DiM-24">
          <mxGeometry relative="1" as="geometry" />
        </mxCell>
        <mxCell id="V8_oPzXZYHcg_3Df2DiM-16" value="" style="html=1;dashed=0;whiteSpace=wrap;shape=partialRectangle;right=0;" vertex="1" parent="1">
          <mxGeometry x="740" y="550" width="100" height="30" as="geometry" />
        </mxCell>
        <mxCell id="V8_oPzXZYHcg_3Df2DiM-17" value="Bikes" style="text;html=1;strokeColor=none;fillColor=none;align=center;verticalAlign=middle;whiteSpace=wrap;rounded=0;" vertex="1" parent="1">
          <mxGeometry x="760" y="551.5" width="60" height="30" as="geometry" />
        </mxCell>
        <mxCell id="V8_oPzXZYHcg_3Df2DiM-32" style="edgeStyle=orthogonalEdgeStyle;rounded=0;orthogonalLoop=1;jettySize=auto;html=1;entryX=1;entryY=0.5;entryDx=0;entryDy=0;" edge="1" parent="1" source="V8_oPzXZYHcg_3Df2DiM-18" target="V8_oPzXZYHcg_3Df2DiM-24">
          <mxGeometry relative="1" as="geometry" />
        </mxCell>
        <mxCell id="V8_oPzXZYHcg_3Df2DiM-18" value="" style="html=1;dashed=0;whiteSpace=wrap;shape=partialRectangle;right=0;" vertex="1" parent="1">
          <mxGeometry x="740" y="640" width="100" height="30" as="geometry" />
        </mxCell>
        <mxCell id="V8_oPzXZYHcg_3Df2DiM-19" value="Bike Category" style="text;html=1;strokeColor=none;fillColor=none;align=center;verticalAlign=middle;whiteSpace=wrap;rounded=0;" vertex="1" parent="1">
          <mxGeometry x="760" y="640.5" width="60" height="30" as="geometry" />
        </mxCell>
        <mxCell id="V8_oPzXZYHcg_3Df2DiM-36" style="edgeStyle=orthogonalEdgeStyle;rounded=0;orthogonalLoop=1;jettySize=auto;html=1;" edge="1" parent="1" source="V8_oPzXZYHcg_3Df2DiM-20" target="V8_oPzXZYHcg_3Df2DiM-23">
          <mxGeometry relative="1" as="geometry" />
        </mxCell>
        <mxCell id="V8_oPzXZYHcg_3Df2DiM-20" value="" style="html=1;dashed=0;whiteSpace=wrap;shape=partialRectangle;right=0;" vertex="1" parent="1">
          <mxGeometry x="740" y="730" width="100" height="30" as="geometry" />
        </mxCell>
        <mxCell id="V8_oPzXZYHcg_3Df2DiM-21" value="Rental" style="text;html=1;strokeColor=none;fillColor=none;align=center;verticalAlign=middle;whiteSpace=wrap;rounded=0;" vertex="1" parent="1">
          <mxGeometry x="760" y="731.5" width="60" height="30" as="geometry" />
        </mxCell>
        <mxCell id="V8_oPzXZYHcg_3Df2DiM-44" style="edgeStyle=orthogonalEdgeStyle;rounded=0;orthogonalLoop=1;jettySize=auto;html=1;entryX=0.611;entryY=0.95;entryDx=0;entryDy=0;entryPerimeter=0;" edge="1" parent="1" source="V8_oPzXZYHcg_3Df2DiM-22" target="V8_oPzXZYHcg_3Df2DiM-30">
          <mxGeometry relative="1" as="geometry" />
        </mxCell>
        <mxCell id="V8_oPzXZYHcg_3Df2DiM-22" value="2.4" style="swimlane;fontStyle=0;childLayout=stackLayout;horizontal=1;startSize=20;fillColor=#ffffff;horizontalStack=0;resizeParent=1;resizeParentMax=0;resizeLast=0;collapsible=0;marginBottom=0;swimlaneFillColor=#ffffff;" vertex="1" parent="1">
          <mxGeometry x="980" y="725" width="100" height="75" as="geometry" />
        </mxCell>
        <mxCell id="V8_oPzXZYHcg_3Df2DiM-23" value="Monitor Bike Rentals Orders" style="text;html=1;strokeColor=none;fillColor=none;align=center;verticalAlign=middle;whiteSpace=wrap;rounded=0;" vertex="1" parent="V8_oPzXZYHcg_3Df2DiM-22">
          <mxGeometry y="20" width="100" height="55" as="geometry" />
        </mxCell>
        <mxCell id="V8_oPzXZYHcg_3Df2DiM-26" style="edgeStyle=orthogonalEdgeStyle;rounded=0;orthogonalLoop=1;jettySize=auto;html=1;entryX=0.5;entryY=1;entryDx=0;entryDy=0;" edge="1" parent="1" source="V8_oPzXZYHcg_3Df2DiM-24" target="V8_oPzXZYHcg_3Df2DiM-3">
          <mxGeometry relative="1" as="geometry" />
        </mxCell>
        <mxCell id="V8_oPzXZYHcg_3Df2DiM-24" value="" style="rounded=1;whiteSpace=wrap;html=1;" vertex="1" parent="1">
          <mxGeometry x="505" y="600" width="90" height="40" as="geometry" />
        </mxCell>
        <mxCell id="V8_oPzXZYHcg_3Df2DiM-27" style="edgeStyle=orthogonalEdgeStyle;rounded=0;orthogonalLoop=1;jettySize=auto;html=1;entryX=0.5;entryY=0;entryDx=0;entryDy=0;" edge="1" parent="1" source="V8_oPzXZYHcg_3Df2DiM-25" target="V8_oPzXZYHcg_3Df2DiM-8">
          <mxGeometry relative="1" as="geometry" />
        </mxCell>
        <mxCell id="V8_oPzXZYHcg_3Df2DiM-25" value="Customer" style="text;html=1;strokeColor=none;fillColor=none;align=center;verticalAlign=middle;whiteSpace=wrap;rounded=0;" vertex="1" parent="1">
          <mxGeometry x="520" y="607" width="60" height="30" as="geometry" />
        </mxCell>
        <mxCell id="V8_oPzXZYHcg_3Df2DiM-28" value="Customer Information" style="text;html=1;strokeColor=none;fillColor=none;align=center;verticalAlign=middle;whiteSpace=wrap;rounded=0;" vertex="1" parent="1">
          <mxGeometry x="487" y="549.5" width="60" height="30" as="geometry" />
        </mxCell>
        <mxCell id="V8_oPzXZYHcg_3Df2DiM-33" style="edgeStyle=orthogonalEdgeStyle;rounded=0;orthogonalLoop=1;jettySize=auto;html=1;entryX=1;entryY=0.5;entryDx=0;entryDy=0;" edge="1" parent="1" source="V8_oPzXZYHcg_3Df2DiM-30" target="V8_oPzXZYHcg_3Df2DiM-18">
          <mxGeometry relative="1" as="geometry" />
        </mxCell>
        <mxCell id="V8_oPzXZYHcg_3Df2DiM-46" style="edgeStyle=orthogonalEdgeStyle;rounded=0;orthogonalLoop=1;jettySize=auto;html=1;entryX=0.85;entryY=1.033;entryDx=0;entryDy=0;entryPerimeter=0;" edge="1" parent="1" source="V8_oPzXZYHcg_3Df2DiM-30" target="V8_oPzXZYHcg_3Df2DiM-6">
          <mxGeometry relative="1" as="geometry" />
        </mxCell>
        <mxCell id="V8_oPzXZYHcg_3Df2DiM-30" value="" style="rounded=1;whiteSpace=wrap;html=1;" vertex="1" parent="1">
          <mxGeometry x="990" y="597" width="90" height="40" as="geometry" />
        </mxCell>
        <mxCell id="V8_oPzXZYHcg_3Df2DiM-31" value="Admin" style="text;html=1;strokeColor=none;fillColor=none;align=center;verticalAlign=middle;whiteSpace=wrap;rounded=0;" vertex="1" parent="1">
          <mxGeometry x="1005" y="612" width="60" height="16" as="geometry" />
        </mxCell>
        <mxCell id="V8_oPzXZYHcg_3Df2DiM-35" style="edgeStyle=orthogonalEdgeStyle;rounded=0;orthogonalLoop=1;jettySize=auto;html=1;entryX=0;entryY=0.5;entryDx=0;entryDy=0;" edge="1" parent="1" source="V8_oPzXZYHcg_3Df2DiM-9" target="V8_oPzXZYHcg_3Df2DiM-20">
          <mxGeometry relative="1" as="geometry" />
        </mxCell>
        <mxCell id="V8_oPzXZYHcg_3Df2DiM-47" style="edgeStyle=orthogonalEdgeStyle;rounded=0;orthogonalLoop=1;jettySize=auto;html=1;entryX=1;entryY=0.5;entryDx=0;entryDy=0;" edge="1" parent="1" source="V8_oPzXZYHcg_3Df2DiM-6" target="V8_oPzXZYHcg_3Df2DiM-16">
          <mxGeometry relative="1" as="geometry" />
        </mxCell>
        <mxCell id="V8_oPzXZYHcg_3Df2DiM-48" value="Customer Information" style="text;html=1;strokeColor=none;fillColor=none;align=center;verticalAlign=middle;whiteSpace=wrap;rounded=0;" vertex="1" parent="1">
          <mxGeometry x="640" y="370" width="60" height="30" as="geometry" />
        </mxCell>
        <mxCell id="V8_oPzXZYHcg_3Df2DiM-49" value="Bike Category Information" style="text;html=1;strokeColor=none;fillColor=none;align=center;verticalAlign=middle;whiteSpace=wrap;rounded=0;" vertex="1" parent="1">
          <mxGeometry x="851" y="620" width="60" height="30" as="geometry" />
        </mxCell>
        <mxCell id="V8_oPzXZYHcg_3Df2DiM-50" value="Categories List" style="text;html=1;strokeColor=none;fillColor=none;align=center;verticalAlign=middle;whiteSpace=wrap;rounded=0;" vertex="1" parent="1">
          <mxGeometry x="674" y="625" width="60" height="30" as="geometry" />
        </mxCell>
        <mxCell id="V8_oPzXZYHcg_3Df2DiM-51" value="Bike Information" style="text;html=1;strokeColor=none;fillColor=none;align=center;verticalAlign=middle;whiteSpace=wrap;rounded=0;" vertex="1" parent="1">
          <mxGeometry x="1000" y="532.5" width="60" height="30" as="geometry" />
        </mxCell>
        <mxCell id="V8_oPzXZYHcg_3Df2DiM-52" value="Bikes &lt;br&gt;Info" style="text;html=1;strokeColor=none;fillColor=none;align=center;verticalAlign=middle;whiteSpace=wrap;rounded=0;" vertex="1" parent="1">
          <mxGeometry x="847" y="534.5" width="60" height="30" as="geometry" />
        </mxCell>
        <mxCell id="V8_oPzXZYHcg_3Df2DiM-53" value="Bikes &lt;br&gt;List" style="text;html=1;strokeColor=none;fillColor=none;align=center;verticalAlign=middle;whiteSpace=wrap;rounded=0;" vertex="1" parent="1">
          <mxGeometry x="630" y="534.5" width="60" height="30" as="geometry" />
        </mxCell>
        <mxCell id="V8_oPzXZYHcg_3Df2DiM-54" value="Bike Choosen" style="text;html=1;strokeColor=none;fillColor=none;align=center;verticalAlign=middle;whiteSpace=wrap;rounded=0;" vertex="1" parent="1">
          <mxGeometry x="489" y="668" width="60" height="30" as="geometry" />
        </mxCell>
        <mxCell id="V8_oPzXZYHcg_3Df2DiM-56" value="Rental Info" style="text;html=1;strokeColor=none;fillColor=none;align=center;verticalAlign=middle;whiteSpace=wrap;rounded=0;" vertex="1" parent="1">
          <mxGeometry x="605" y="748.5" width="60" height="30" as="geometry" />
        </mxCell>
        <mxCell id="V8_oPzXZYHcg_3Df2DiM-57" value="Rental List" style="text;html=1;strokeColor=none;fillColor=none;align=center;verticalAlign=middle;whiteSpace=wrap;rounded=0;" vertex="1" parent="1">
          <mxGeometry x="911" y="742" width="60" height="30" as="geometry" />
        </mxCell>
        <mxCell id="V8_oPzXZYHcg_3Df2DiM-65" value="Bike Order Information" style="text;html=1;strokeColor=none;fillColor=none;align=center;verticalAlign=middle;whiteSpace=wrap;rounded=0;" vertex="1" parent="1">
          <mxGeometry x="981" y="647.5" width="60" height="30" as="geometry" />
        </mxCell>
      </root>
    </mxGraphModel>
  </diagram>
</mxfile>
